<mxfile host="app.diagrams.net" modified="2023-08-14T09:30:01.725Z" agent="Mozilla/5.0 (Windows NT 10.0; Win64; x64) AppleWebKit/537.36 (KHTML, like Gecko) Chrome/115.0.0.0 Safari/537.36" etag="FBTpWE5ngwKlximfYJVC" version="21.6.8" type="github">
  <diagram name="Page-1" id="56knVvjj2u2CIRRqfRTc">
    <mxGraphModel dx="1050" dy="1674" grid="1" gridSize="10" guides="1" tooltips="1" connect="1" arrows="1" fold="1" page="1" pageScale="1" pageWidth="850" pageHeight="1100" math="0" shadow="0">
      <root>
        <mxCell id="0" />
        <mxCell id="1" parent="0" />
        <mxCell id="UWBqWSYBu2Z39quqlVep-2" style="edgeStyle=orthogonalEdgeStyle;rounded=0;orthogonalLoop=1;jettySize=auto;html=1;exitX=0.5;exitY=0;exitDx=0;exitDy=0;" parent="1" source="UWBqWSYBu2Z39quqlVep-1" edge="1">
          <mxGeometry relative="1" as="geometry">
            <mxPoint x="440" y="40" as="targetPoint" />
          </mxGeometry>
        </mxCell>
        <mxCell id="UWBqWSYBu2Z39quqlVep-1" value="AWS Cloud" style="points=[[0,0],[0.25,0],[0.5,0],[0.75,0],[1,0],[1,0.25],[1,0.5],[1,0.75],[1,1],[0.75,1],[0.5,1],[0.25,1],[0,1],[0,0.75],[0,0.5],[0,0.25]];outlineConnect=0;gradientColor=none;html=1;whiteSpace=wrap;fontSize=12;fontStyle=0;container=1;pointerEvents=0;collapsible=0;recursiveResize=0;shape=mxgraph.aws4.group;grIcon=mxgraph.aws4.group_aws_cloud_alt;strokeColor=#232F3E;fillColor=none;verticalAlign=top;align=left;spacingLeft=30;fontColor=#232F3E;dashed=0;" parent="1" vertex="1">
          <mxGeometry x="70" y="60" width="740" height="670" as="geometry" />
        </mxCell>
        <mxCell id="UWBqWSYBu2Z39quqlVep-7" value="My account" style="text;html=1;strokeColor=none;fillColor=none;align=center;verticalAlign=middle;whiteSpace=wrap;rounded=0;" parent="UWBqWSYBu2Z39quqlVep-1" vertex="1">
          <mxGeometry x="100" width="80" height="30" as="geometry" />
        </mxCell>
        <mxCell id="UWBqWSYBu2Z39quqlVep-6" value="Region us-east-1" style="points=[[0,0],[0.25,0],[0.5,0],[0.75,0],[1,0],[1,0.25],[1,0.5],[1,0.75],[1,1],[0.75,1],[0.5,1],[0.25,1],[0,1],[0,0.75],[0,0.5],[0,0.25]];outlineConnect=0;gradientColor=none;html=1;whiteSpace=wrap;fontSize=12;fontStyle=0;container=1;pointerEvents=0;collapsible=0;recursiveResize=0;shape=mxgraph.aws4.group;grIcon=mxgraph.aws4.group_region;strokeColor=#147EBA;fillColor=none;verticalAlign=top;align=left;spacingLeft=30;fontColor=#147EBA;dashed=1;" parent="UWBqWSYBu2Z39quqlVep-1" vertex="1">
          <mxGeometry x="45" y="40" width="665" height="590" as="geometry" />
        </mxCell>
        <mxCell id="HdUqujcSjbwmHMOw8zNv-16" value="" style="edgeStyle=orthogonalEdgeStyle;html=1;endArrow=block;elbow=vertical;startArrow=block;startFill=1;endFill=1;strokeColor=#545B64;rounded=0;" edge="1" parent="UWBqWSYBu2Z39quqlVep-6" target="HdUqujcSjbwmHMOw8zNv-4">
          <mxGeometry width="100" relative="1" as="geometry">
            <mxPoint x="165" y="-44" as="sourcePoint" />
            <mxPoint x="185" y="16" as="targetPoint" />
            <Array as="points">
              <mxPoint x="165" y="-24" />
              <mxPoint x="155" y="-24" />
              <mxPoint x="155" y="-10" />
              <mxPoint x="205" y="-10" />
              <mxPoint x="205" y="30" />
              <mxPoint x="185" y="30" />
              <mxPoint x="185" y="40" />
            </Array>
          </mxGeometry>
        </mxCell>
        <mxCell id="HdUqujcSjbwmHMOw8zNv-6" value="" style="dashed=0;outlineConnect=0;html=1;align=center;labelPosition=center;verticalLabelPosition=bottom;verticalAlign=top;shape=mxgraph.webicons.wordpress_2;fillColor=#35E2EE;gradientColor=#0E4D99" vertex="1" parent="UWBqWSYBu2Z39quqlVep-1">
          <mxGeometry x="10" y="230" width="35" height="30" as="geometry" />
        </mxCell>
        <mxCell id="HdUqujcSjbwmHMOw8zNv-5" value="" style="sketch=0;points=[[0,0,0],[0.25,0,0],[0.5,0,0],[0.75,0,0],[1,0,0],[0,1,0],[0.25,1,0],[0.5,1,0],[0.75,1,0],[1,1,0],[0,0.25,0],[0,0.5,0],[0,0.75,0],[1,0.25,0],[1,0.5,0],[1,0.75,0]];outlineConnect=0;fontColor=#232F3E;gradientColor=#945DF2;gradientDirection=north;fillColor=#5A30B5;strokeColor=#ffffff;dashed=0;verticalLabelPosition=bottom;verticalAlign=top;align=center;html=1;fontSize=12;fontStyle=0;aspect=fixed;shape=mxgraph.aws4.resourceIcon;resIcon=mxgraph.aws4.route_53;" vertex="1" parent="UWBqWSYBu2Z39quqlVep-1">
          <mxGeometry x="240" y="12" width="28" height="28" as="geometry" />
        </mxCell>
        <mxCell id="HdUqujcSjbwmHMOw8zNv-9" value="dns" style="text;html=1;strokeColor=none;fillColor=none;align=center;verticalAlign=middle;whiteSpace=wrap;rounded=0;" vertex="1" parent="UWBqWSYBu2Z39quqlVep-1">
          <mxGeometry x="224" y="-10" width="60" height="30" as="geometry" />
        </mxCell>
        <mxCell id="UWBqWSYBu2Z39quqlVep-3" value="Single Tier" style="text;strokeColor=none;fillColor=none;html=1;fontSize=24;fontStyle=1;verticalAlign=middle;align=center;" parent="1" vertex="1">
          <mxGeometry x="375" y="-10" width="100" height="40" as="geometry" />
        </mxCell>
        <mxCell id="UWBqWSYBu2Z39quqlVep-9" value="VPC" style="points=[[0,0],[0.25,0],[0.5,0],[0.75,0],[1,0],[1,0.25],[1,0.5],[1,0.75],[1,1],[0.75,1],[0.5,1],[0.25,1],[0,1],[0,0.75],[0,0.5],[0,0.25]];outlineConnect=0;gradientColor=none;html=1;whiteSpace=wrap;fontSize=12;fontStyle=0;container=1;pointerEvents=0;collapsible=0;recursiveResize=0;shape=mxgraph.aws4.group;grIcon=mxgraph.aws4.group_vpc;strokeColor=#248814;fillColor=none;verticalAlign=top;align=left;spacingLeft=30;fontColor=#AAB7B8;dashed=0;" parent="1" vertex="1">
          <mxGeometry x="130" y="140" width="630" height="550" as="geometry" />
        </mxCell>
        <mxCell id="UWBqWSYBu2Z39quqlVep-10" value="us-east-1a" style="fillColor=none;strokeColor=#147EBA;dashed=1;verticalAlign=top;fontStyle=0;fontColor=#147EBA;whiteSpace=wrap;html=1;" parent="UWBqWSYBu2Z39quqlVep-9" vertex="1">
          <mxGeometry x="15" y="50" width="265" height="260" as="geometry" />
        </mxCell>
        <mxCell id="UWBqWSYBu2Z39quqlVep-11" value="us-east-1b" style="fillColor=none;strokeColor=#147EBA;dashed=1;verticalAlign=top;fontStyle=0;fontColor=#147EBA;whiteSpace=wrap;html=1;" parent="UWBqWSYBu2Z39quqlVep-9" vertex="1">
          <mxGeometry x="340" y="50" width="290" height="260" as="geometry" />
        </mxCell>
        <mxCell id="HdUqujcSjbwmHMOw8zNv-1" value="Private subnet" style="points=[[0,0],[0.25,0],[0.5,0],[0.75,0],[1,0],[1,0.25],[1,0.5],[1,0.75],[1,1],[0.75,1],[0.5,1],[0.25,1],[0,1],[0,0.75],[0,0.5],[0,0.25]];outlineConnect=0;gradientColor=none;html=1;whiteSpace=wrap;fontSize=12;fontStyle=0;container=1;pointerEvents=0;collapsible=0;recursiveResize=0;shape=mxgraph.aws4.group;grIcon=mxgraph.aws4.group_security_group;grStroke=0;strokeColor=#147EBA;fillColor=#E6F2F8;verticalAlign=top;align=left;spacingLeft=30;fontColor=#147EBA;dashed=0;" vertex="1" parent="UWBqWSYBu2Z39quqlVep-9">
          <mxGeometry x="360" y="110" width="130" height="130" as="geometry" />
        </mxCell>
        <mxCell id="HdUqujcSjbwmHMOw8zNv-2" value="Public subnet" style="points=[[0,0],[0.25,0],[0.5,0],[0.75,0],[1,0],[1,0.25],[1,0.5],[1,0.75],[1,1],[0.75,1],[0.5,1],[0.25,1],[0,1],[0,0.75],[0,0.5],[0,0.25]];outlineConnect=0;gradientColor=none;html=1;whiteSpace=wrap;fontSize=12;fontStyle=0;container=1;pointerEvents=0;collapsible=0;recursiveResize=0;shape=mxgraph.aws4.group;grIcon=mxgraph.aws4.group_security_group;grStroke=0;strokeColor=#248814;fillColor=#E9F3E6;verticalAlign=top;align=left;spacingLeft=30;fontColor=#248814;dashed=0;" vertex="1" parent="UWBqWSYBu2Z39quqlVep-9">
          <mxGeometry x="50" y="110" width="130" height="130" as="geometry" />
        </mxCell>
        <mxCell id="HdUqujcSjbwmHMOw8zNv-3" value="" style="sketch=0;points=[[0,0,0],[0.25,0,0],[0.5,0,0],[0.75,0,0],[1,0,0],[0,1,0],[0.25,1,0],[0.5,1,0],[0.75,1,0],[1,1,0],[0,0.25,0],[0,0.5,0],[0,0.75,0],[1,0.25,0],[1,0.5,0],[1,0.75,0]];outlineConnect=0;fontColor=#232F3E;gradientColor=#F78E04;gradientDirection=north;fillColor=#D05C17;strokeColor=#ffffff;dashed=0;verticalLabelPosition=bottom;verticalAlign=top;align=center;html=1;fontSize=12;fontStyle=0;aspect=fixed;shape=mxgraph.aws4.resourceIcon;resIcon=mxgraph.aws4.ec2;" vertex="1" parent="HdUqujcSjbwmHMOw8zNv-2">
          <mxGeometry y="31" width="39" height="39" as="geometry" />
        </mxCell>
        <mxCell id="HdUqujcSjbwmHMOw8zNv-7" value="" style="edgeStyle=orthogonalEdgeStyle;html=1;endArrow=block;elbow=vertical;startArrow=none;endFill=1;strokeColor=#545B64;rounded=0;" edge="1" parent="UWBqWSYBu2Z39quqlVep-9">
          <mxGeometry width="100" relative="1" as="geometry">
            <mxPoint x="-10" y="160" as="sourcePoint" />
            <mxPoint x="60" y="160" as="targetPoint" />
          </mxGeometry>
        </mxCell>
        <mxCell id="HdUqujcSjbwmHMOw8zNv-8" value="" style="image;aspect=fixed;html=1;points=[];align=center;fontSize=12;image=img/lib/azure2/networking/Network_Security_Groups.svg;" vertex="1" parent="UWBqWSYBu2Z39quqlVep-9">
          <mxGeometry x="100" y="160" width="32.94" height="40" as="geometry" />
        </mxCell>
        <mxCell id="HdUqujcSjbwmHMOw8zNv-4" value="Internet&#xa;gateway" style="sketch=0;outlineConnect=0;fontColor=#232F3E;gradientColor=none;strokeColor=#232F3E;fillColor=#ffffff;dashed=0;verticalLabelPosition=bottom;verticalAlign=top;align=center;html=1;fontSize=12;fontStyle=0;aspect=fixed;shape=mxgraph.aws4.resourceIcon;resIcon=mxgraph.aws4.internet_gateway;" vertex="1" parent="UWBqWSYBu2Z39quqlVep-9">
          <mxGeometry x="180" y="-30" width="60" height="60" as="geometry" />
        </mxCell>
        <mxCell id="HdUqujcSjbwmHMOw8zNv-10" value="" style="image;aspect=fixed;perimeter=ellipsePerimeter;html=1;align=center;shadow=0;dashed=0;spacingTop=3;image=img/lib/active_directory/users.svg;" vertex="1" parent="1">
          <mxGeometry x="260" y="10" width="33" height="50" as="geometry" />
        </mxCell>
      </root>
    </mxGraphModel>
  </diagram>
</mxfile>
